<?xml version="1.0" encoding="UTF-8"?>
<svg width="20px" height="20px" viewBox="0 0 20 20" version="1.1" xmlns="http://www.w3.org/2000/svg" xmlns:xlink="http://www.w3.org/1999/xlink">
    <!-- Generator: sketchtool 51.3 (57544) - http://www.bohemiancoding.com/sketch -->
    <title>A818870D-5469-4BFF-B255-8458CC65C96D</title>
    <desc>Created with sketchtool.</desc>
    <defs></defs>
    <g id="Page-1" stroke="none" stroke-width="1" fill="none" fill-rule="evenodd">
        <g id="dribbble_landing_h975" transform="translate(-1777.000000, -3796.000000)" fill="#272125" stroke="#272125" stroke-width="0.3">
            <g id="location" transform="translate(0.000000, 2925.000000)">
                <g id="side-menu" transform="translate(1694.000000, 0.000000)">
                    <g id="social" transform="translate(43.000000, 871.000000)">
                        <g id="dribbble1" transform="translate(40.000000, 0.000000)">
                            <path d="M14.1967328,16.092052 C13.9254017,14.1978541 13.4629444,12.4725981 12.9168693,10.9470009 C14.2871765,10.7422227 15.7564598,10.8070691 17.3161867,11.1449531 C16.9953676,13.1910282 15.8315451,14.9606527 14.1967328,16.092052 M5.5960502,15.9606527 C6.0294973,15.2524616 6.85714235,14.092052 8.15236419,13.0510964 C9.1404188,12.2575811 10.2120912,11.6756698 11.3656748,11.3070691 C11.9697703,12.9572398 12.4595314,14.8258404 12.7035587,16.8906869 C11.8622618,17.2217449 10.947586,17.4060452 9.98854167,17.4060452 C8.34690344,17.4060452 6.82813211,16.8667961 5.5960502,15.9606527 M2.57215941,9.98795648 C2.57215941,9.90092577 2.57215941,9.81560154 2.57557238,9.73198379 C2.77523109,9.73710324 3.00219354,9.74051621 3.25475327,9.74051621 C4.35031641,9.74051621 5.91516283,9.67225683 7.62164747,9.38727389 C8.56362699,9.2302773 9.44758604,9.02208618 10.2718181,8.764407 C10.4441731,9.11082338 10.6114086,9.47089164 10.7769376,9.84631826 C9.27693757,10.3394923 8.07557238,11.0818131 7.15919013,11.817308 C5.84178399,12.877035 4.94758604,14.0442705 4.41174986,14.8719155 C3.26669866,13.5664548 2.57215941,11.8582637 2.57215941,9.98795648 M6.65748365,3.36167662 C7.21891709,3.97942406 8.35714235,5.33778584 9.50901948,7.33949232 C6.89809798,8.09375853 4.2069717,8.17396331 2.80082836,8.15177901 C3.33666453,6.05621587 4.76669866,4.31560154 6.65748365,3.36167662 M14.6830809,4.24904863 C13.729156,5.40945819 12.4339342,6.23198379 11.0329103,6.81048208 C10.8776202,6.52891212 10.7223301,6.26611348 10.5704529,6.01867321 C9.69331982,4.56986775 8.85031641,3.47942406 8.2513403,2.77635239 C8.80936078,2.6415401 9.39127204,2.56986775 9.98854167,2.56986775 C11.7684051,2.56986775 13.4032174,3.19956058 14.6830809,4.24904863 M15.7974154,5.38044795 C16.7172106,6.53744454 17.2991219,7.97601109 17.3929785,9.54256399 C15.4748898,9.1637244 13.788883,9.18761519 12.3298386,9.45041382 C12.1455383,9.01696672 11.9578249,8.60570392 11.7666987,8.21491894 C13.4373471,7.49990188 14.7957089,6.54768345 15.7974154,5.38044795 M9.98854167,0.98625 C5.02608433,0.98625 0.988541667,5.02549915 0.988541667,9.98795648 C0.988541667,14.9504138 5.02608433,18.98625 9.98854167,18.98625 C14.950999,18.98625 18.9885417,14.9504138 18.9885417,9.98795648 C18.9885417,5.02549915 14.950999,0.98625 9.98854167,0.98625" id="Fill-3"></path>
                        </g>
                    </g>
                </g>
            </g>
        </g>
    </g>
</svg>