<?xml version="1.0" encoding="UTF-8"?>
<svg width="212px" height="194px" viewBox="0 0 212 194" version="1.1" xmlns="http://www.w3.org/2000/svg" xmlns:xlink="http://www.w3.org/1999/xlink">
    <!-- Generator: sketchtool 51.3 (57544) - http://www.bohemiancoding.com/sketch -->
    <title>6CBB8AB5-0D7F-4FEE-9E3A-BD13BCE8F0DD</title>
    <desc>Created with sketchtool.</desc>
    <defs></defs>
    <g id="Page-1" stroke="none" stroke-width="1" fill="none" fill-rule="evenodd">
        <g id="dribbble_landing_h975" transform="translate(-1708.000000, -20.000000)">
            <g id="header">
                <g id="side-menu" transform="translate(1690.000000, 0.000000)">
                    <g id="Group-2" transform="translate(18.000000, 0.000000)">
                        <g id="logo" transform="translate(-2.000000, 20.000000)">
                            <path d="M108.8035,41.6268 C83.7455,41.6268 63.4135,61.9588 63.4135,87.0178 C63.4135,112.0758 83.7455,132.4078 108.8035,132.4078 C133.8125,132.4078 154.1935,112.0758 154.1935,87.0178 C154.1935,61.9588 133.8125,41.6268 108.8035,41.6268" id="Fill-1" fill="#E694C0"></path>
                            <path d="M130.4158,119.1644 C130.0218,116.8014 127.9538,105.4784 122.8838,91.5464 C135.0428,89.6264 145.6768,92.7774 147.0058,93.2204 C145.3328,104.0014 139.1288,113.3064 130.4158,119.1644 M108.8038,125.8104 C99.8438,125.8104 91.5728,122.7584 85.0248,117.6384 C85.7148,116.2104 93.5918,101.0474 115.4498,93.4174 C115.5478,93.3684 115.5978,93.3684 115.6958,93.3184 C121.1608,107.4474 123.3758,119.3124 123.9668,122.7084 C119.2898,124.7274 114.1698,125.8104 108.8038,125.8104 M70.0098,87.0664 L70.0098,85.8854 C71.6838,85.9344 90.4898,86.1804 109.8368,80.3714 C110.9698,82.5374 112.0028,84.7524 112.9878,86.9684 C112.4958,87.1154 111.9548,87.2634 111.4618,87.4114 C91.4748,93.8604 80.8408,111.4844 79.9548,112.9614 C73.8008,106.1184 70.0098,97.0114 70.0098,87.0664 M92.3118,51.9654 C93.3448,53.3434 100.2378,62.9434 106.6868,74.3654 C88.5698,79.1894 72.5698,79.0914 70.8468,79.0915494 C73.3578,67.0794 81.4808,57.0854 92.3118,51.9654 M108.8038,48.3224 C118.6498,48.3224 127.6588,52.0144 134.5018,58.0694 C133.8118,59.0544 127.9538,66.8824 114.1698,72.0514 C107.8188,60.3834 100.7788,50.8324 99.6958,49.3564 C102.6008,48.6664 105.6528,48.3224 108.8038,48.3224 M138.7848,62.5494 C144.1998,69.1464 147.4488,77.5654 147.5478,86.6724 C146.2678,86.4264 133.4678,83.8174 120.5698,85.4414 C120.2738,84.8024 120.0278,84.1124 119.7328,83.4234 C118.9448,81.5524 118.0588,79.6324 117.1728,77.8114 C131.4498,72.0014 137.9478,63.6324 138.7848,62.5494 M108.8038,41.6264 C83.7458,41.6264 63.4138,61.9584 63.4138,87.0174 C63.4138,112.0754 83.7458,132.4074 108.8038,132.4074 C133.8118,132.4074 154.1938,112.0754 154.1938,87.0174 C154.1938,61.9584 133.8118,41.6264 108.8038,41.6264" id="Fill-3" fill="#EE2F6E"></path>
                            <path d="M170.1009,86.6239 C170.1009,120.3689 142.6459,147.8229 108.9009,147.8229 C75.1559,147.8229 47.7029,120.3689 47.7029,86.6239 C47.7029,52.8779 75.1559,25.4249 108.9009,25.4249 C142.6459,25.4249 170.1009,52.8779 170.1009,86.6239 Z M69.9679,166.0849 C68.2179,169.1149 64.3279,170.1589 61.2959,168.4099 C58.2649,166.6589 57.2229,162.7689 58.9719,159.7369 C60.1469,157.7029 62.2849,156.5649 64.4809,156.5649 C65.5569,156.5649 66.6469,156.8379 67.6439,157.4139 C70.6749,159.1649 71.7179,163.0549 69.9679,166.0849 Z M147.0969,7.1009 C148.8469,4.0699 152.7359,3.0269 155.7689,4.7769 C158.7999,6.5279 159.8419,10.4169 158.0929,13.4489 C156.3419,16.4789 152.4529,17.5209 149.4209,15.7729 C146.3899,14.0219 145.3469,10.1319 147.0969,7.1009 Z M147.9369,34.5249 L215.9929,34.5249 L215.9929,38.4539 L152.6889,38.4539 C165.2549,49.8859 173.3279,66.1599 173.9709,84.2919 L187.9209,84.2919 L187.9209,88.2209 L173.9889,88.2209 C173.5169,107.6749 164.4889,125.0429 150.5139,136.6809 C154.4759,135.5759 158.6449,134.9719 162.9549,134.9719 C168.9449,134.9719 189.4529,134.8549 215.9929,134.6849 L215.9929,138.6139 C189.4549,138.7839 168.9479,138.9009 162.9549,138.9009 C139.5449,138.9009 120.4999,157.9459 120.4999,181.3559 C120.4999,185.6679 121.1619,189.9319 122.4309,193.9999 L118.3429,193.9999 C117.1829,189.9099 116.5709,185.6559 116.5709,181.3559 C116.5709,168.2399 122.0519,156.3869 130.8329,147.9419 C123.9759,150.4019 116.5949,151.7519 108.9009,151.7519 C97.6299,151.7519 87.0209,148.8719 77.7649,143.8119 L71.2129,155.1609 C74.8489,158.3229 75.8679,163.7249 73.3699,168.0499 C71.4689,171.3429 68.0069,173.1869 64.4529,173.1869 C62.7099,173.1869 60.9449,172.7439 59.3309,171.8119 C54.4239,168.9779 52.7359,162.6799 55.5689,157.7729 C58.0669,153.4469 63.2559,151.6279 67.8109,153.1969 L74.3829,141.8139 C72.8339,140.8419 71.3229,139.8179 69.8649,138.7229 L-0.0001,138.7239 L-0.0001,134.7939 L65.1139,134.7939 C52.0109,122.8729 43.7729,105.6919 43.7729,86.6239 C43.7729,67.5549 52.0109,50.3749 65.1139,38.4539 L-0.0001,38.4539 L-0.0001,34.5249 L69.8659,34.5249 C80.7509,26.3479 94.2689,21.4959 108.9009,21.4959 C119.9339,21.4959 130.3289,24.2629 139.4439,29.1239 L145.8519,18.0259 C142.2159,14.8639 141.1969,9.4619 143.6949,5.1359 C146.5279,0.2279 152.8269,-1.4581 157.7329,1.3739 C162.6409,4.2079 164.3279,10.5059 161.4959,15.4139 C159.5939,18.7059 156.1309,20.5499 152.5769,20.5499 C151.4649,20.5499 150.3479,20.3479 149.2629,19.9749 L142.8559,31.0719 C144.6049,32.1449 146.3019,33.2959 147.9369,34.5249 Z M9.236,88.221 L9.236,84.292 L25.523,84.292 L25.523,88.221 L9.236,88.221 Z M204.375,88.221 L204.375,84.292 L215.992,84.292 L215.992,88.221 L204.375,88.221 Z" id="Fill-7" fill="#FFFFFF"></path>
                        </g>
                    </g>
                </g>
            </g>
        </g>
    </g>
</svg>